<svg xmlns="http://www.w3.org/2000/svg" viewBox="0 0 800 520">
    <rect width="800" height="520" rx="34" fill="#dcefff"/>
    <circle cx="660" cy="80" r="130" fill="#ffffff" opacity=".35"/>
    <circle cx="110" cy="450" r="150" fill="#b9ddfb" opacity=".6"/>
    <rect x="38" y="35" width="190" height="62" rx="16" fill="#fff"/>
    <text x="58" y="63" font-family="Arial" font-size="16" font-weight="700" fill="#0c2d57">AARAV HOME CARE</text>
    <text x="58" y="84" font-family="Arial" font-size="11" fill="#1d5fa8">COMPASSION • COMFORT • DIGNITY</text><rect x="130" y="305" width="450" height="120" rx="18" fill="#55748f"/>
        <rect x="145" y="285" width="150" height="55" rx="14" fill="#fff"/>
        <rect x="150" y="420" width="12" height="48" fill="#304c68"/><rect x="545" y="420" width="12" height="48" fill="#304c68"/>
        <circle cx="265" cy="270" r="42" fill="#bd7957"/>
        <path d="M300 300 Q390 260 500 315 L540 395 L300 395Z" fill="#fff"/>
        <circle cx="475" cy="205" r="38" fill="#b66e4d"/>
        <rect x="435" y="245" width="80" height="145" rx="18" fill="#fff"/>
        <rect x="410" y="270" width="34" height="105" rx="17" fill="#b66e4d" transform="rotate(15 410 270)"/>
        <text x="458" y="300" font-family="Arial" font-size="26" font-weight="700" fill="#1d5fa8">+</text>
    <rect x="42" y="445" width="716" height="45" rx="14" fill="#ffffff" opacity=".92"/>
    <text x="62" y="475" font-family="Arial" font-size="20" font-weight="800" fill="#0c2d57">Male Patient Care</text>
    </svg>